<svg width="70" height="70" viewBox="0 0 70 70" fill="none" xmlns="http://www.w3.org/2000/svg">
<path d="M70 66C70 68.2091 68.2091 70 66 70H4C1.79086 70 0 68.2091 0 66V56.5C0 54.2909 1.79086 52.5 4 52.5H13.5C15.7091 52.5 17.5 50.7091 17.5 48.5V39C17.5 36.7909 19.2909 35 21.5 35H31C33.2091 35 35 33.2091 35 31V21.5C35 19.2909 36.7909 17.5 39 17.5H48.5C50.7091 17.5 52.5 15.7091 52.5 13.5V4C52.5 1.79086 54.2909 0 56.5 0H66C68.2091 0 70 1.79086 70 4V66Z" fill="#8C33D9"/>
<rect x="39" y="5" width="9" height="9" rx="2" fill="#8C33D9"/>
<rect x="21" y="23" width="9" height="9" rx="2.5" fill="#7FE94D"/>
<rect x="6" y="37" width="8" height="8" rx="2" fill="#4C4949"/>
<rect x="10" y="23" width="5" height="5" rx="1.5" fill="#8C33D9"/>
<rect x="25" y="9" width="5.5" height="5.5" rx="1.5" fill="#4C4949"/>
</svg>
